<svg xmlns="http://www.w3.org/2000/svg" width="375" viewBox="0 0 375 375" height="375" version="1.0"><defs><clipPath id="a"><path d="M 104 169 L 271 169 L 271 206.414062 L 104 206.414062 Z M 104 169"/></clipPath><clipPath id="b"><path d="M 100.957031 156 L 274.207031 156 L 274.207031 206.414062 L 100.957031 206.414062 Z M 100.957031 156"/></clipPath><clipPath id="c"><path d="M 117 81.914062 L 258 81.914062 L 258 182 L 117 182 Z M 117 81.914062"/></clipPath></defs><g clip-path="url(#a)"><path d="M 187.589844 169.882812 L 214.699219 201.609375 L 187.589844 173.359375 L 160.46875 201.609375 Z M 263.464844 202.742188 L 245.898438 182.417969 L 230.292969 199.34375 L 247.03125 178.726562 L 270.503906 206.390625 L 263.460938 206.390625 L 263.460938 202.742188 Z M 111.714844 202.742188 L 129.269531 182.417969 L 144.875 199.34375 L 128.132812 178.726562 L 104.660156 206.390625 L 111.714844 206.390625 Z M 111.714844 202.742188" fill-rule="evenodd"/></g><g clip-path="url(#b)"><path fill="#FFF" d="M 247.109375 175.546875 L 272.917969 206.390625 L 274.207031 206.390625 L 247.5625 174.414062 L 229.167969 178.207031 L 229.167969 181.738281 L 226.136719 184.761719 L 226.136719 175.382812 L 221.664062 175.382812 L 221.664062 179.757812 L 216.816406 180.757812 L 193.042969 159.304688 L 227.570312 200.257812 Z M 128.058594 175.546875 L 147.597656 200.257812 L 182.121094 159.304688 L 158.351562 180.757812 L 153.503906 179.757812 L 153.503906 175.382812 L 149.027344 175.382812 L 149.027344 184.761719 L 145.996094 181.738281 L 145.996094 178.207031 L 127.605469 174.414062 L 100.957031 206.390625 L 102.246094 206.390625 L 128.054688 175.546875 Z M 187.589844 156.730469 L 229.542969 206.390625 L 220.757812 206.390625 L 187.589844 166.859375 L 154.417969 206.390625 L 145.621094 206.390625 Z M 187.589844 156.730469" fill-rule="evenodd"/></g><g clip-path="url(#c)"><path fill="#FFF" d="M 139.773438 173.425781 L 126.28125 170.632812 L 117.269531 181.453125 L 117.269531 157.46875 L 139.089844 139.09375 L 150.449219 143.304688 L 150.449219 110.613281 L 187.578125 81.933594 L 224.714844 110.613281 L 224.714844 143.304688 L 236.078125 139.09375 L 257.898438 157.46875 L 257.898438 181.453125 L 248.882812 170.632812 L 235.394531 173.425781 L 235.394531 143.007812 L 224.714844 146.964844 L 224.714844 171.953125 L 218.226562 171.953125 L 218.226562 176.964844 L 217.828125 177.054688 L 187.589844 151.410156 L 187.578125 86.265625 L 153.886719 112.292969 L 153.886719 171.953125 L 150.449219 171.953125 L 150.449219 146.964844 L 139.773438 143.007812 Z M 139.773438 173.425781" fill-rule="evenodd"/></g><path d="M 193.484375 192.503906 L 193.484375 197.839844 L 188.152344 197.839844 L 188.152344 192.503906 Z M 188.152344 186.050781 L 193.484375 186.050781 L 193.484375 191.371094 L 188.152344 191.371094 Z M 187.015625 192.503906 L 187.015625 197.839844 L 181.671875 197.839844 L 181.671875 192.503906 Z M 181.671875 186.050781 L 187.015625 186.050781 L 187.015625 191.371094 L 181.671875 191.371094 Z M 181.671875 186.050781" fill-rule="evenodd"/><path d="M 133.007812 198.675781 L 133.007812 202.214844 L 129.445312 202.214844 L 129.445312 198.675781 Z M 129.445312 194.363281 L 133.007812 194.363281 L 133.007812 197.914062 L 129.445312 197.914062 Z M 128.6875 198.675781 L 128.6875 202.214844 L 125.125 202.214844 L 125.125 198.675781 Z M 125.125 194.363281 L 128.6875 194.363281 L 128.6875 197.914062 L 125.125 197.914062 Z M 125.125 194.363281" fill-rule="evenodd"/><path d="M 250.042969 198.675781 L 250.042969 202.214844 L 246.480469 202.214844 L 246.480469 198.675781 Z M 246.480469 194.363281 L 250.042969 194.363281 L 250.042969 197.914062 L 246.480469 197.914062 Z M 245.722656 198.675781 L 245.722656 202.214844 L 242.160156 202.214844 L 242.160156 198.675781 Z M 242.160156 194.363281 L 245.722656 194.363281 L 245.722656 197.914062 L 242.160156 197.914062 Z M 242.160156 194.363281" fill-rule="evenodd"/><path d="M 158.277344 168.851562 L 158.277344 115.886719 L 183.191406 96.632812 L 183.203125 153.65625 Z M 158.277344 168.851562" fill-rule="evenodd"/><g fill="#FFF"><g><g><path d="M 18.558594 -18.910156 L 0.40625 -18.910156 L 0.40625 -11.875 L 4.382812 -11.875 L 4.382812 -15.339844 L 6.710938 -15.339844 L 6.710938 -3.597656 L 4.492188 -3.597656 L 4.492188 0 L 14.554688 0 L 14.554688 -3.597656 L 12.308594 -3.597656 L 12.308594 -15.339844 L 14.582031 -15.339844 L 14.582031 -11.875 L 18.558594 -11.875 Z M 18.558594 -18.910156" transform="translate(53.104 252.473)"/></g></g></g><g fill="#FFF"><g><g><path d="M 9.171875 0 L 9.171875 -3.542969 L 7.222656 -3.542969 L 7.222656 -7.359375 C 7.222656 -8.523438 7.546875 -9.875 8.925781 -9.875 C 10.523438 -9.875 10.523438 -8.277344 10.523438 -7.359375 L 10.523438 0 L 17.476562 0 L 17.476562 -3.542969 L 16.203125 -3.542969 L 16.203125 -8.0625 C 16.203125 -10.902344 15.664062 -14.011719 11.46875 -14.011719 C 9.496094 -14.011719 7.519531 -12.335938 7.222656 -11.847656 L 7.222656 -20.289062 L 0.675781 -20.289062 L 0.675781 -16.773438 L 1.8125 -16.773438 L 1.8125 -3.542969 L 0.675781 -3.542969 L 0.675781 0 Z M 9.171875 0" transform="translate(72.064 252.473)"/></g></g></g><g fill="#FFF"><g><g><path d="M 11.984375 -4.492188 C 10.523438 -3.273438 9.117188 -3.191406 8.195312 -3.191406 C 5.925781 -3.191406 5.574219 -4.679688 5.410156 -5.410156 L 13.933594 -5.410156 C 14.5 -6.953125 14.203125 -9.035156 13.878906 -9.980469 C 13.09375 -12.253906 10.632812 -13.90625 7.414062 -13.90625 C 3.328125 -13.90625 0.136719 -11.28125 0.136719 -6.84375 C 0.136719 -1.648438 3.921875 0.488281 7.277344 0.488281 C 10.089844 0.488281 12.253906 -0.136719 14.257812 -1.867188 Z M 5.492188 -8.089844 C 5.546875 -8.765625 5.925781 -10.253906 7.574219 -10.253906 C 9.304688 -10.253906 9.550781 -9.117188 9.578125 -8.089844 Z M 5.492188 -8.089844" transform="translate(89.942 252.473)"/></g></g></g><g fill="#FFF"><g><g><path d="M 8.65625 -6.113281 C 8.546875 -6.925781 8.089844 -10.144531 7.792969 -11.441406 L 7.085938 -15.394531 L 8.65625 -15.394531 L 8.65625 -18.910156 L -0.269531 -18.910156 L -0.269531 -15.394531 L 1.246094 -15.394531 L 4.816406 0 L 11.089844 0 L 12.742188 -6.492188 C 12.929688 -7.277344 13.28125 -8.980469 13.390625 -9.792969 L 13.5 -9.792969 C 13.632812 -8.953125 13.933594 -7.359375 14.175781 -6.4375 L 15.796875 0 L 22.210938 0 L 26.242188 -15.394531 L 27.730469 -15.394531 L 27.730469 -18.910156 L 19.992188 -18.910156 L 19.992188 -15.394531 L 21.480469 -15.394531 L 20.558594 -11.28125 C 20.316406 -10.144531 19.855469 -7.332031 19.75 -6.113281 L 19.613281 -6.113281 C 19.476562 -7.464844 19.179688 -9.683594 18.800781 -11.441406 L 17.097656 -18.910156 L 11.46875 -18.910156 L 10.117188 -12.824219 C 9.578125 -10.253906 8.847656 -6.871094 8.792969 -6.113281 Z M 8.65625 -6.113281" transform="translate(104.601 252.473)"/></g></g></g><g fill="#FFF"><g><g><path d="M 11.984375 -4.492188 C 10.523438 -3.273438 9.117188 -3.191406 8.195312 -3.191406 C 5.925781 -3.191406 5.574219 -4.679688 5.410156 -5.410156 L 13.933594 -5.410156 C 14.5 -6.953125 14.203125 -9.035156 13.878906 -9.980469 C 13.09375 -12.253906 10.632812 -13.90625 7.414062 -13.90625 C 3.328125 -13.90625 0.136719 -11.28125 0.136719 -6.84375 C 0.136719 -1.648438 3.921875 0.488281 7.277344 0.488281 C 10.089844 0.488281 12.253906 -0.136719 14.257812 -1.867188 Z M 5.492188 -8.089844 C 5.546875 -8.765625 5.925781 -10.253906 7.574219 -10.253906 C 9.304688 -10.253906 9.550781 -9.117188 9.578125 -8.089844 Z M 5.492188 -8.089844" transform="translate(132.054 252.473)"/></g></g></g><g fill="#FFF"><g><g><path d="M 0.839844 0 L 6.925781 0 L 7.332031 -0.917969 C 8.089844 -0.269531 8.847656 0.296875 10.902344 0.296875 C 14.714844 0.296875 17.070312 -2.488281 17.152344 -6.65625 C 17.234375 -10.28125 15.042969 -13.742188 10.929688 -13.742188 C 9.605469 -13.742188 7.980469 -13.175781 7.386719 -12.472656 L 7.386719 -20.289062 L 0.839844 -20.289062 L 0.839844 -16.746094 L 1.976562 -16.746094 L 1.976562 -3.515625 L 0.839844 -3.515625 Z M 11.199219 -6.601562 C 11.199219 -4.542969 10.414062 -3.21875 9.277344 -3.21875 C 8.25 -3.21875 7.332031 -4.625 7.332031 -6.464844 C 7.222656 -8.601562 8.195312 -9.929688 9.253906 -9.929688 C 10.441406 -9.929688 11.199219 -8.222656 11.199219 -6.601562 Z M 11.199219 -6.601562" transform="translate(146.713 252.473)"/></g></g></g><g fill="#FFF"><g><g><path d="M 0.40625 0 L 3.789062 0 L 4.03125 -1.648438 C 4.679688 -0.621094 6.222656 0.324219 8.167969 0.324219 C 10.792969 0.324219 13.203125 -1.191406 13.203125 -3.734375 C 13.203125 -6.574219 10.902344 -7.359375 8.847656 -8.0625 C 7.113281 -8.65625 5.519531 -8.980469 5.519531 -9.738281 C 5.519531 -10.414062 6.003906 -10.710938 6.574219 -10.710938 C 7.925781 -10.710938 9.332031 -9.792969 9.332031 -8.65625 L 12.851562 -8.65625 L 12.851562 -13.527344 L 9.523438 -13.527344 L 9.304688 -11.742188 C 8.738281 -12.902344 7.113281 -13.851562 5.273438 -13.851562 C 3.355469 -13.851562 0.515625 -12.6875 0.515625 -9.929688 C 0.515625 -7.386719 2.273438 -6.25 4.113281 -5.601562 C 6.058594 -4.921875 8.089844 -4.789062 8.089844 -3.976562 C 8.089844 -3.21875 7.4375 -3.058594 6.898438 -3.058594 C 6.085938 -3.058594 4.03125 -3.4375 4.03125 -4.871094 L 0.40625 -4.871094 Z M 0.40625 0" transform="translate(164.456 252.473)"/></g></g></g><g fill="#FFF"><g><g><path d="M 1.433594 -17.476562 C 1.433594 -16.175781 2.652344 -14.742188 4.355469 -14.742188 C 6.277344 -14.742188 7.332031 -15.988281 7.332031 -17.476562 C 7.332031 -18.71875 6.222656 -20.234375 4.355469 -20.234375 C 2.460938 -20.234375 1.433594 -18.71875 1.433594 -17.476562 Z M 8.25 0 L 8.25 -3.542969 L 6.953125 -3.542969 L 6.953125 -13.527344 L 0.675781 -13.527344 L 0.675781 -10.007812 L 1.8125 -10.007812 L 1.8125 -3.542969 L 0.675781 -3.542969 L 0.675781 0 Z M 8.25 0" transform="translate(178.196 252.473)"/></g></g></g><g fill="#FFF"><g><g><path d="M 0.40625 -13.527344 L 0.40625 -10.007812 L 1.867188 -10.007812 L 1.867188 -5.195312 C 1.949219 -1.730469 2.082031 0.488281 6.140625 0.488281 C 6.761719 0.488281 8.601562 0.296875 9.414062 -0.0273438 L 9.414062 -3.488281 C 8.898438 -3.273438 8.0625 -3.03125 7.710938 -3.03125 C 6.65625 -3.03125 6.84375 -4.273438 6.84375 -5.195312 L 6.84375 -10.007812 L 9.414062 -10.007812 L 9.414062 -13.527344 L 6.84375 -13.527344 L 6.84375 -17.609375 L 1.867188 -16.015625 L 1.867188 -13.527344 Z M 0.40625 -13.527344" transform="translate(187.121 252.473)"/></g></g></g><g fill="#FFF"><g><g><path d="M 11.984375 -4.492188 C 10.523438 -3.273438 9.117188 -3.191406 8.195312 -3.191406 C 5.925781 -3.191406 5.574219 -4.679688 5.410156 -5.410156 L 13.933594 -5.410156 C 14.5 -6.953125 14.203125 -9.035156 13.878906 -9.980469 C 13.09375 -12.253906 10.632812 -13.90625 7.414062 -13.90625 C 3.328125 -13.90625 0.136719 -11.28125 0.136719 -6.84375 C 0.136719 -1.648438 3.921875 0.488281 7.277344 0.488281 C 10.089844 0.488281 12.253906 -0.136719 14.257812 -1.867188 Z M 5.492188 -8.089844 C 5.546875 -8.765625 5.925781 -10.253906 7.574219 -10.253906 C 9.304688 -10.253906 9.550781 -9.117188 9.578125 -8.089844 Z M 5.492188 -8.089844" transform="translate(196.94 252.473)"/></g></g></g><g fill="#FFF"><g><g><path d="M 0.675781 0 L 10.957031 0 C 16.175781 0 18.316406 -1.675781 18.316406 -5.492188 C 18.316406 -8.117188 16.691406 -9.550781 14.742188 -10.089844 C 16.773438 -10.902344 17.394531 -12.011719 17.394531 -14.285156 C 17.394531 -17.234375 15.257812 -18.910156 10.765625 -18.910156 L 0.675781 -18.910156 L 0.675781 -15.421875 L 2.246094 -15.421875 L 2.246094 -3.515625 L 0.675781 -3.515625 Z M 7.84375 -15.339844 L 9.550781 -15.339844 C 10.578125 -15.339844 11.335938 -14.609375 11.335938 -13.363281 C 11.335938 -12.066406 10.929688 -11.28125 9.496094 -11.28125 L 7.84375 -11.28125 Z M 7.84375 -3.515625 L 7.84375 -8.222656 L 9.929688 -8.222656 C 11.417969 -8.222656 12.199219 -7.222656 12.199219 -5.84375 C 12.199219 -4.382812 11.144531 -3.515625 10.007812 -3.515625 Z M 7.84375 -3.515625" transform="translate(211.599 252.473)"/></g></g></g><g fill="#FFF"><g><g><path d="M 0.40625 -13.527344 L 0.40625 -9.957031 L 1.542969 -9.957031 L 1.542969 -6.222656 C 1.542969 -1.730469 2.894531 0.378906 6.980469 0.378906 C 9.277344 0.378906 10.226562 -1.027344 10.820312 -1.703125 L 11.550781 0 L 16.664062 0 L 16.664062 -3.597656 L 15.339844 -3.597656 L 15.339844 -13.527344 L 8.332031 -13.527344 L 8.332031 -9.957031 L 10.117188 -9.957031 L 10.117188 -5.652344 C 10.117188 -4.4375 9.359375 -3.597656 8.414062 -3.597656 C 7.304688 -3.597656 6.953125 -4.679688 6.953125 -7.007812 L 6.953125 -13.527344 Z M 0.40625 -13.527344" transform="translate(230.18 252.473)"/></g></g></g><g fill="#FFF"><g><g><path d="M 1.433594 -17.476562 C 1.433594 -16.175781 2.652344 -14.742188 4.355469 -14.742188 C 6.277344 -14.742188 7.332031 -15.988281 7.332031 -17.476562 C 7.332031 -18.71875 6.222656 -20.234375 4.355469 -20.234375 C 2.460938 -20.234375 1.433594 -18.71875 1.433594 -17.476562 Z M 8.25 0 L 8.25 -3.542969 L 6.953125 -3.542969 L 6.953125 -13.527344 L 0.675781 -13.527344 L 0.675781 -10.007812 L 1.8125 -10.007812 L 1.8125 -3.542969 L 0.675781 -3.542969 L 0.675781 0 Z M 8.25 0" transform="translate(247.247 252.473)"/></g></g></g><g fill="#FFF"><g><g><path d="M 8.574219 0 L 8.574219 -3.542969 L 6.980469 -3.542969 L 6.980469 -20.289062 L 0.703125 -20.289062 L 0.703125 -16.800781 L 1.839844 -16.800781 L 1.839844 -3.542969 L 0.675781 -3.542969 L 0.675781 0 Z M 8.574219 0" transform="translate(256.172 252.473)"/></g></g></g><g fill="#FFF"><g><g><path d="M 9.957031 -16.773438 L 9.957031 -12.769531 C 9.441406 -13.09375 8.46875 -13.796875 6.546875 -13.796875 C 3.21875 -13.796875 0.269531 -11.117188 0.269531 -6.898438 C 0.269531 -3.136719 2.730469 0.242188 6.546875 0.242188 C 8.414062 0.242188 9.605469 -0.675781 9.957031 -1 L 10.414062 0 L 16.746094 0 L 16.746094 -3.515625 L 15.445312 -3.515625 L 15.445312 -20.289062 L 8.710938 -20.289062 L 8.710938 -16.773438 Z M 6.085938 -6.898438 C 6.085938 -8.953125 6.871094 -10.28125 8.007812 -10.28125 C 9.035156 -10.28125 9.957031 -8.875 9.957031 -7.035156 C 10.0625 -4.898438 9.089844 -3.570312 8.035156 -3.570312 C 6.84375 -3.570312 6.085938 -5.273438 6.085938 -6.898438 Z M 6.085938 -6.898438" transform="translate(265.152 252.473)"/></g></g></g><g fill="#FFF"><g><g><path d="M 11.984375 -4.492188 C 10.523438 -3.273438 9.117188 -3.191406 8.195312 -3.191406 C 5.925781 -3.191406 5.574219 -4.679688 5.410156 -5.410156 L 13.933594 -5.410156 C 14.5 -6.953125 14.203125 -9.035156 13.878906 -9.980469 C 13.09375 -12.253906 10.632812 -13.90625 7.414062 -13.90625 C 3.328125 -13.90625 0.136719 -11.28125 0.136719 -6.84375 C 0.136719 -1.648438 3.921875 0.488281 7.277344 0.488281 C 10.089844 0.488281 12.253906 -0.136719 14.257812 -1.867188 Z M 5.492188 -8.089844 C 5.546875 -8.765625 5.925781 -10.253906 7.574219 -10.253906 C 9.304688 -10.253906 9.550781 -9.117188 9.578125 -8.089844 Z M 5.492188 -8.089844" transform="translate(282.3 252.473)"/></g></g></g><g fill="#FFF"><g><g><path d="M 8.332031 0 L 8.332031 -3.542969 L 6.980469 -3.542969 L 6.980469 -6.332031 C 6.980469 -8.710938 8.359375 -9.332031 10.792969 -9.332031 L 10.792969 -14.203125 C 8.007812 -14.203125 7.304688 -13.09375 6.601562 -11.792969 L 5.789062 -13.527344 L 0.703125 -13.527344 L 0.703125 -10.007812 L 1.867188 -10.007812 L 1.867188 -3.542969 L 0.675781 -3.542969 L 0.675781 0 Z M 8.332031 0" transform="translate(296.959 252.473)"/></g></g></g><g fill="#FFF"><g><g><path d="M 0.40625 0 L 3.789062 0 L 4.03125 -1.648438 C 4.679688 -0.621094 6.222656 0.324219 8.167969 0.324219 C 10.792969 0.324219 13.203125 -1.191406 13.203125 -3.734375 C 13.203125 -6.574219 10.902344 -7.359375 8.847656 -8.0625 C 7.113281 -8.65625 5.519531 -8.980469 5.519531 -9.738281 C 5.519531 -10.414062 6.003906 -10.710938 6.574219 -10.710938 C 7.925781 -10.710938 9.332031 -9.792969 9.332031 -8.65625 L 12.851562 -8.65625 L 12.851562 -13.527344 L 9.523438 -13.527344 L 9.304688 -11.742188 C 8.738281 -12.902344 7.113281 -13.851562 5.273438 -13.851562 C 3.355469 -13.851562 0.515625 -12.6875 0.515625 -9.929688 C 0.515625 -7.386719 2.273438 -6.25 4.113281 -5.601562 C 6.058594 -4.921875 8.089844 -4.789062 8.089844 -3.976562 C 8.089844 -3.21875 7.4375 -3.058594 6.898438 -3.058594 C 6.085938 -3.058594 4.03125 -3.4375 4.03125 -4.871094 L 0.40625 -4.871094 Z M 0.40625 0" transform="translate(308.156 252.473)"/></g></g></g></svg>